<svg width="150" height="225" viewBox="0 0 150 225" fill="none" xmlns="http://www.w3.org/2000/svg">
<path d="M75 112.5C75 92.0006 91.6182 75.3818 112.118 75.3818C132.618 75.3818 149.236 92.0006 149.236 112.5C149.236 133 132.618 149.618 112.118 149.618C91.6182 149.618 75 133 75 112.5Z" fill="#1ABCFE"/>
<path d="M0.763672 186.736C0.763672 166.237 17.382 149.618 37.8819 149.618H75.0001V186.736C75.0001 207.236 58.3819 223.855 37.8819 223.855C17.382 223.855 0.763672 207.236 0.763672 186.736Z" fill="#0ACF83"/>
<path d="M75 1.14551V75.3817H112.118C132.618 75.3817 149.236 58.7635 149.236 38.2637C149.236 17.7639 132.618 1.14551 112.118 1.14551H75Z" fill="#FF7262"/>
<path d="M0.763672 38.2637C0.763672 58.7635 17.382 75.3818 37.8819 75.3818H75.0001V1.14551H37.8819C17.382 1.14551 0.763672 17.7639 0.763672 38.2637Z" fill="#F24E1E"/>
<path d="M0.763672 112.5C0.763672 133 17.382 149.618 37.8819 149.618H75.0001V75.3818H37.8819C17.382 75.3818 0.763672 92.0006 0.763672 112.5Z" fill="#A259FF"/>
</svg>
