<svg xmlns="http://www.w3.org/2000/svg" width="24" height="24" viewBox="0 0 24 24" fill="none">
  <path d="M15.852 8.981h-4.588V0h4.588c2.476 0 4.49 2.014 4.49 4.49s-2.014 4.491-4.49 4.491z" fill="#1ABCFE"/>
  <path d="M11.264 24c-2.476 0-4.49-2.014-4.49-4.49s2.014-4.49 4.49-4.49v8.98z" fill="#0ACF83"/>
  <path d="M11.264 8.981H6.677c-2.476 0-4.49-2.014-4.49-4.491S4.201 0 6.677 0h4.588v8.981z" fill="#FF7262"/>
  <path d="M11.264 15.019H6.677c-2.476 0-4.49-2.014-4.49-4.49s2.014-4.49 4.49-4.49h4.588v8.98z" fill="#F24E1E"/>
  <path d="M20.342 15.019c0-2.476-2.014-4.49-4.49-4.49s-4.49 2.014-4.49 4.49 2.014 4.49 4.49 4.49 4.49-2.014 4.49-4.49z" fill="#A259FF"/>
</svg>