<svg xmlns="http://www.w3.org/2000/svg" width="24" height="24" viewBox="0 0 24 24" fill="none">
  <path d="M12 0C9.21 0 6.84 1.64 5.38 4.17c-.91 1.58-1.32 3.47-.97 5.38.35 1.9 1.34 3.6 2.83 4.85 1.48 1.25 3.37 1.94 5.38 1.94s3.9-.69 5.38-1.94c1.49-1.25 2.48-2.95 2.83-4.85.35-1.91.06-3.8-.97-5.38C17.16 1.64 14.79 0 12 0zm6.03 8.55c-.31 1.69-1.19 3.19-2.51 4.3-1.32 1.11-3 1.72-4.76 1.72s-3.44-.61-4.76-1.72c-1.32-1.11-2.2-2.61-2.51-4.3-.31-1.7-.05-3.36.86-4.77C5.61 2.12 7.17 1.23 8.86 1.23h6.28c1.69 0 3.25.89 4.51 2.32.91 1.41 1.17 3.07.86 4.77z" fill="#0866ff"/>
  <circle cx="8" cy="12" r="3" fill="#0866ff"/>
  <circle cx="16" cy="12" r="3" fill="#0866ff"/>
</svg>