<svg xmlns="http://www.w3.org/2000/svg" width="24" height="24" viewBox="0 0 24 24" fill="none">
  <path d="M13.976 9.15c-2.172-.806-3.356-1.426-3.356-2.409 0-.831.683-1.305 1.901-1.305 2.227 0 4.515.858 6.09 1.631l.89-5.494C18.252.975 15.697 0 12.165 0 9.667 0 7.589.654 6.104 1.872 4.56 3.147 3.757 4.992 3.757 7.218c0 4.039 2.467 5.76 6.476 7.219 2.585.92 3.445 1.708 3.445 2.749 0 .858-.672 1.315-1.934 1.315-2.513 0-5.075-1.098-6.78-2.098l-.955 5.454c1.487.706 4.163 1.314 7.1 1.314 2.513 0 4.681-.726 6.248-2.098 1.618-1.405 2.434-3.313 2.434-5.556.001-4.557-2.805-6.297-6.815-7.548z" fill="#635BFF"/>
</svg>