<svg xmlns="http://www.w3.org/2000/svg" width="1200" height="800" viewBox="0 0 1200 800">
  <defs>
    <linearGradient id="bgGradient" x1="0%" y1="0%" x2="100%" y2="100%">
      <stop offset="0%" style="stop-color:#f8fafc;stop-opacity:1" />
      <stop offset="100%" style="stop-color:#e2e8f0;stop-opacity:1" />
    </linearGradient>
  </defs>
  
  <!-- Background -->
  <rect width="1200" height="800" fill="url(#bgGradient)"/>
  
  <!-- Title -->
  <text x="600" y="40" font-family="Inter, system-ui, sans-serif" font-size="24" font-weight="600" fill="#1e293b" text-anchor="middle">Wireframe Explorations - Guidance Density & Progressive Disclosure</text>
  
  <!-- Wireframe 1: High Guidance Density -->
  <rect x="50" y="80" width="350" height="600" fill="#ffffff" rx="12" stroke="#e2e8f0"/>
  <text x="225" y="110" font-family="Inter, system-ui, sans-serif" font-size="16" font-weight="600" fill="#1e293b" text-anchor="middle">High Guidance Density</text>
  
  <!-- Header -->
  <rect x="70" y="130" width="310" height="40" fill="#f1f5f9" rx="8"/>
  <text x="225" y="155" font-family="Inter, system-ui, sans-serif" font-size="14" font-weight="600" fill="#475569" text-anchor="middle">Ticket #SR-2024-001</text>
  
  <!-- AI Panel -->
  <rect x="70" y="190" width="310" height="120" fill="#8b5cf6" rx="8"/>
  <text x="225" y="210" font-family="Inter, system-ui, sans-serif" font-size="12" font-weight="600" fill="#ffffff" text-anchor="middle">🤖 AI Assistant</text>
  
  <rect x="80" y="220" width="290" height="30" fill="#ffffff" opacity="0.9" rx="4"/>
  <text x="225" y="240" font-family="Inter, system-ui, sans-serif" font-size="10" fill="#1e293b" text-anchor="middle">Intent: Billing inquiry (94% confidence)</text>
  
  <rect x="80" y="260" width="290" height="30" fill="#ffffff" opacity="0.9" rx="4"/>
  <text x="225" y="280" font-family="Inter, system-ui, sans-serif" font-size="10" fill="#1e293b" text-anchor="middle">Suggested Action: Check billing history</text>
  
  <rect x="80" y="290" width="290" height="30" fill="#ffffff" opacity="0.9" rx="4"/>
  <text x="225" y="310" font-family="Inter, system-ui, sans-serif" font-size="10" fill="#1e293b" text-anchor="middle">Policy: Refund within 24h for duplicates</text>
  
  <!-- Customer Message -->
  <rect x="70" y="330" width="310" height="80" fill="#f8fafc" rx="8"/>
  <text x="225" y="350" font-family="Inter, system-ui, sans-serif" font-size="12" font-weight="600" fill="#1e293b" text-anchor="middle">Customer Message</text>
  <text x="225" y="370" font-family="Inter, system-ui, sans-serif" font-size="10" fill="#64748b" text-anchor="middle">"I've been charged twice for my subscription..."</text>
  
  <!-- Response Area -->
  <rect x="70" y="430" width="310" height="80" fill="#ffffff" rx="8"/>
  <text x="225" y="450" font-family="Inter, system-ui, sans-serif" font-size="12" font-weight="600" fill="#1e293b" text-anchor="middle">Response</text>
  <text x="225" y="470" font-family="Inter, system-ui, sans-serif" font-size="10" fill="#64748b" text-anchor="middle">Type your response...</text>
  
  <!-- Quick Actions -->
  <rect x="70" y="530" width="310" height="60" fill="#f8fafc" rx="8"/>
  <text x="225" y="550" font-family="Inter, system-ui, sans-serif" font-size="12" font-weight="600" fill="#1e293b" text-anchor="middle">Quick Actions</text>
  
  <rect x="80" y="560" width="60" height="20" fill="#10b981" rx="4"/>
  <text x="110" y="573" font-family="Inter, system-ui, sans-serif" font-size="8" fill="#ffffff" text-anchor="middle">Check</text>
  
  <rect x="150" y="560" width="60" height="20" fill="#3b82f6" rx="4"/>
  <text x="180" y="573" font-family="Inter, system-ui, sans-serif" font-size="8" fill="#ffffff" text-anchor="middle">Refund</text>
  
  <rect x="220" y="560" width="60" height="20" fill="#f59e0b" rx="4"/>
  <text x="250" y="573" font-family="Inter, system-ui, sans-serif" font-size="8" fill="#ffffff" text-anchor="middle">Escalate</text>
  
  <rect x="290" y="560" width="60" height="20" fill="#8b5cf6" rx="4"/>
  <text x="320" y="573" font-family="Inter, system-ui, sans-serif" font-size="8" fill="#ffffff" text-anchor="middle">AI Draft</text>
  
  <!-- Wireframe 2: Medium Guidance Density -->
  <rect x="430" y="80" width="350" height="600" fill="#ffffff" rx="12" stroke="#e2e8f0"/>
  <text x="605" y="110" font-family="Inter, system-ui, sans-serif" font-size="16" font-weight="600" fill="#1e293b" text-anchor="middle">Medium Guidance Density</text>
  
  <!-- Header -->
  <rect x="450" y="130" width="310" height="40" fill="#f1f5f9" rx="8"/>
  <text x="605" y="155" font-family="Inter, system-ui, sans-serif" font-size="14" font-weight="600" fill="#475569" text-anchor="middle">Ticket #SR-2024-001</text>
  
  <!-- AI Panel -->
  <rect x="450" y="190" width="310" height="80" fill="#8b5cf6" rx="8"/>
  <text x="605" y="210" font-family="Inter, system-ui, sans-serif" font-size="12" font-weight="600" fill="#ffffff" text-anchor="middle">🤖 AI Assistant</text>
  
  <rect x="460" y="220" width="290" height="30" fill="#ffffff" opacity="0.9" rx="4"/>
  <text x="605" y="240" font-family="Inter, system-ui, sans-serif" font-size="10" fill="#1e293b" text-anchor="middle">Intent: Billing inquiry (94% confidence)</text>
  
  <rect x="460" y="260" width="290" height="30" fill="#ffffff" opacity="0.9" rx="4"/>
  <text x="605" y="280" font-family="Inter, system-ui, sans-serif" font-size="10" fill="#1e293b" text-anchor="middle">Suggested Action: Check billing history</text>
  
  <!-- Customer Message -->
  <rect x="450" y="290" width="310" height="80" fill="#f8fafc" rx="8"/>
  <text x="605" y="310" font-family="Inter, system-ui, sans-serif" font-size="12" font-weight="600" fill="#1e293b" text-anchor="middle">Customer Message</text>
  <text x="605" y="330" font-family="Inter, system-ui, sans-serif" font-size="10" fill="#64748b" text-anchor="middle">"I've been charged twice for my subscription..."</text>
  
  <!-- Response Area -->
  <rect x="450" y="390" width="310" height="80" fill="#ffffff" rx="8"/>
  <text x="605" y="410" font-family="Inter, system-ui, sans-serif" font-size="12" font-weight="600" fill="#1e293b" text-anchor="middle">Response</text>
  <text x="605" y="430" font-family="Inter, system-ui, sans-serif" font-size="10" fill="#64748b" text-anchor="middle">Type your response...</text>
  
  <!-- Quick Actions -->
  <rect x="450" y="490" width="310" height="60" fill="#f8fafc" rx="8"/>
  <text x="605" y="510" font-family="Inter, system-ui, sans-serif" font-size="12" font-weight="600" fill="#1e293b" text-anchor="middle">Quick Actions</text>
  
  <rect x="460" y="520" width="60" height="20" fill="#10b981" rx="4"/>
  <text x="490" y="533" font-family="Inter, system-ui, sans-serif" font-size="8" fill="#ffffff" text-anchor="middle">Check</text>
  
  <rect x="530" y="520" width="60" height="20" fill="#3b82f6" rx="4"/>
  <text x="560" y="533" font-family="Inter, system-ui, sans-serif" font-size="8" fill="#ffffff" text-anchor="middle">Refund</text>
  
  <rect x="600" y="520" width="60" height="20" fill="#f59e0b" rx="4"/>
  <text x="630" y="533" font-family="Inter, system-ui, sans-serif" font-size="8" fill="#ffffff" text-anchor="middle">Escalate</text>
  
  <rect x="670" y="520" width="60" height="20" fill="#8b5cf6" rx="4"/>
  <text x="700" y="533" font-family="Inter, system-ui, sans-serif" font-size="8" fill="#ffffff" text-anchor="middle">AI Draft</text>
  
  <!-- Wireframe 3: Low Guidance Density -->
  <rect x="810" y="80" width="350" height="600" fill="#ffffff" rx="12" stroke="#e2e8f0"/>
  <text x="985" y="110" font-family="Inter, system-ui, sans-serif" font-size="16" font-weight="600" fill="#1e293b" text-anchor="middle">Low Guidance Density</text>
  
  <!-- Header -->
  <rect x="830" y="130" width="310" height="40" fill="#f1f5f9" rx="8"/>
  <text x="985" y="155" font-family="Inter, system-ui, sans-serif" font-size="14" font-weight="600" fill="#475569" text-anchor="middle">Ticket #SR-2024-001</text>
  
  <!-- AI Panel -->
  <rect x="830" y="190" width="310" height="40" fill="#8b5cf6" rx="8"/>
  <text x="985" y="215" font-family="Inter, system-ui, sans-serif" font-size="12" font-weight="600" fill="#ffffff" text-anchor="middle">🤖 AI Assistant</text>
  
  <!-- Customer Message -->
  <rect x="830" y="250" width="310" height="80" fill="#f8fafc" rx="8"/>
  <text x="985" y="270" font-family="Inter, system-ui, sans-serif" font-size="12" font-weight="600" fill="#1e293b" text-anchor="middle">Customer Message</text>
  <text x="985" y="290" font-family="Inter, system-ui, sans-serif" font-size="10" fill="#64748b" text-anchor="middle">"I've been charged twice for my subscription..."</text>
  
  <!-- Response Area -->
  <rect x="830" y="350" width="310" height="80" fill="#ffffff" rx="8"/>
  <text x="985" y="370" font-family="Inter, system-ui, sans-serif" font-size="12" font-weight="600" fill="#1e293b" text-anchor="middle">Response</text>
  <text x="985" y="390" font-family="Inter, system-ui, sans-serif" font-size="10" fill="#64748b" text-anchor="middle">Type your response...</text>
  
  <!-- Quick Actions -->
  <rect x="830" y="450" width="310" height="60" fill="#f8fafc" rx="8"/>
  <text x="985" y="470" font-family="Inter, system-ui, sans-serif" font-size="12" font-weight="600" fill="#1e293b" text-anchor="middle">Quick Actions</text>
  
  <rect x="840" y="480" width="60" height="20" fill="#10b981" rx="4"/>
  <text x="870" y="493" font-family="Inter, system-ui, sans-serif" font-size="8" fill="#ffffff" text-anchor="middle">Check</text>
  
  <rect x="910" y="480" width="60" height="20" fill="#3b82f6" rx="4"/>
  <text x="940" y="493" font-family="Inter, system-ui, sans-serif" font-size="8" fill="#ffffff" text-anchor="middle">Refund</text>
  
  <rect x="980" y="480" width="60" height="20" fill="#f59e0b" rx="4"/>
  <text x="1010" y="493" font-family="Inter, system-ui, sans-serif" font-size="8" fill="#ffffff" text-anchor="middle">Escalate</text>
  
  <rect x="1050" y="480" width="60" height="20" fill="#8b5cf6" rx="4"/>
  <text x="1080" y="493" font-family="Inter, system-ui, sans-serif" font-size="8" fill="#ffffff" text-anchor="middle">AI Draft</text>
  
  <!-- Progressive Disclosure Indicators -->
  <rect x="70" y="700" width="350" height="60" fill="#fef3c7" rx="8"/>
  <text x="245" y="720" font-family="Inter, system-ui, sans-serif" font-size="12" font-weight="600" fill="#92400e" text-anchor="middle">High Guidance Density</text>
  <text x="245" y="740" font-family="Inter, system-ui, sans-serif" font-size="10" fill="#92400e" text-anchor="middle">• All info visible upfront</text>
  
  <rect x="430" y="700" width="350" height="60" fill="#dbeafe" rx="8"/>
  <text x="605" y="720" font-family="Inter, system-ui, sans-serif" font-size="12" font-weight="600" fill="#1e40af" text-anchor="middle">Medium Guidance Density</text>
  <text x="605" y="740" font-family="Inter, system-ui, sans-serif" font-size="10" fill="#1e40af" text-anchor="middle">• Key info prioritized</text>
  
  <rect x="810" y="700" width="350" height="60" fill="#dcfce7" rx="8"/>
  <text x="985" y="720" font-family="Inter, system-ui, sans-serif" font-size="12" font-weight="600" fill="#166534" text-anchor="middle">Low Guidance Density</text>
  <text x="985" y="740" font-family="Inter, system-ui, sans-serif" font-size="10" fill="#166534" text-anchor="middle">• Minimal guidance, clean interface</text>
</svg>
